<svg width="22" height="21" viewBox="0 0 22 21" fill="none" xmlns="http://www.w3.org/2000/svg">
<path d="M10.2796 1.18966C10.5795 0.269381 11.8814 0.269382 12.1812 1.18966L13.9323 6.56406C14.0664 6.97568 14.4502 7.25426 14.8831 7.25426H20.5439C21.5133 7.25426 21.9156 8.49529 21.1306 9.06405L16.5557 12.3787C16.2043 12.6333 16.0572 13.0856 16.1916 13.4983L17.9402 18.8649C18.2402 19.7858 17.1869 20.5527 16.4027 19.9845L11.8171 16.6621C11.4671 16.4085 10.9937 16.4085 10.6437 16.6621L6.05816 19.9845C5.2739 20.5527 4.22061 19.7858 4.52063 18.8649L6.2692 13.4983C6.40366 13.0856 6.25658 12.6333 5.90512 12.3787L1.33025 9.06405C0.545238 8.49529 0.947569 7.25426 1.91696 7.25426H7.57772C8.01064 7.25426 8.39441 6.97568 8.52852 6.56406L10.2796 1.18966Z" fill="black"/>
</svg>
